#define dart_normal_width 32
#define dart_normal_height 12
static unsigned char dart_normal_bits[] = {
   0x00, 0x00, 0x00, 0x00, 0x00, 0x00, 0x00, 0x00, 0xf8, 0xff, 0xff, 0x3f,
   0x3c, 0x00, 0x00, 0x20, 0x3c, 0x00, 0x00, 0x20, 0x3c, 0x00, 0x00, 0x20,
   0x3c, 0x00, 0x00, 0x20, 0x3c, 0x00, 0x00, 0x20, 0x3c, 0x00, 0x00, 0x20,
   0xf8, 0xff, 0xff, 0x3f, 0x00, 0x00, 0x00, 0x00, 0x00, 0x00, 0x00, 0x00 };
