#define dart_mega_width 32
#define dart_mega_height 12
static unsigned char dart_mega_bits[] = {
   0xfc, 0xff, 0xff, 0xff, 0xfe, 0xff, 0xff, 0xff, 0x7f, 0x00, 0x00, 0xc0,
   0x7f, 0x00, 0x00, 0xc0, 0x73, 0x00, 0x00, 0xc0, 0x73, 0x00, 0x00, 0xc0,
   0x73, 0x00, 0x00, 0xc0, 0x73, 0x00, 0x00, 0xc0, 0x7f, 0x00, 0x00, 0xc0,
   0x7f, 0x00, 0x00, 0xc0, 0xfe, 0xff, 0xff, 0xff, 0xfc, 0xff, 0xff, 0xff };
